# AST/ASF file generated using VICON BodyLanguage
# -----------------------------------------------
:version 1.10
:name VICON
:units
  mass 1.0
  length 0.45
  angle deg
:documentation
   .ast/.asf automatically generated from VICON data using
   VICON BodyBuilder and BodyLanguage model FoxedUp or BRILLIANT.MOD
:root
   order TX TY TZ RX RY RZ
   axis XYZ
   position 0 0 0  
   orientation 0 0 0 
:bonedata
  begin
     id 1 
     name lhipjoint
     direction 0.671379 -0.66392 0.329334 
     length 2.38647 
     axis 0 0 0  XYZ
  end
  begin
     id 2 
     name lfemur
     direction 0.34202 -0.939693 0  
     length 6.48179  
     axis 0 0 20  XYZ
    dof rx ry rz
    limits (-160.0 20.0)
           (-70.0 70.0)
           (-60.0 70.0)
  end
  begin
     id 3 
     name ltibia
     direction 0.34202 -0.939693 0   
     length 6.86524   
     axis 0 0 20   XYZ
    dof rx
    limits (-10.0 170.0)
  end
  begin
     id 4 
     name lfoot
     direction 0.204886 -0.562919 0.800715   
     length 1.73031   
     axis -90 7.62852e-016 20   XYZ
    dof rx rz
    limits (-45.0 90.0)
           (-70.0 20.0)
  end
  begin
     id 5 
     name ltoes
     direction 1.53548e-011 -4.21841e-011 1   
     length 0.828161   
     axis -90 7.62852e-016 20   XYZ
    dof rx
    limits (-90.0 20.0)
  end
  begin
     id 6 
     name rhipjoint
     direction -0.662732 -0.670855 0.332775   
     length 2.3618  
     axis 0 0 0  XYZ 
  end
  begin
     id 7 
     name rfemur
     direction -0.34202 -0.939693 0   
     length 6.3025   
     axis 0 0 -20   XYZ
    dof rx ry rz
    limits (-160.0 20.0)
           (-70.0 70.0)
           (-70.0 60.0)
  end
  begin
     id 8 
     name rtibia
     direction -0.34202 -0.939693 0   
     length 6.8732   
     axis 0 0 -20   XYZ
    dof rx
    limits (-10.0 170.0)
 end
 begin
     id 9 
     name rfoot
     direction -0.173856 -0.477665 0.861168   
     length 1.54784  
     axis -90 -7.62852e-016 -20   XYZ
    dof rx rz
    limits (-45.0 90.0)
           (-20.0 70.0)
  end
  begin
     id 10 
     name rtoes
     direction -1.53562e-011 -4.21802e-011 1   
     length 0.759618   
     axis -90 -7.62852e-016 -20   XYZ
    dof rx
    limits (-90.0 20.0)
  end
  begin
     id 11 
     name lowerback
     direction -0.0278357 0.999497 -0.0151789   
     length 1.97203   
     axis 0 0 0   XYZ
    dof rx ry rz
    limits (-20.0 45.0)
           (-30.0 30.0)
           (-30.0 30.0)
  end
  begin
     id 12 
     name upperback
     direction -0.00360622 0.997542 0.0699804   
     length 1.94709   
     axis 0 0 0   XYZ
    dof rx ry rz
    limits (-20.0 45.0)
           (-30.0 30.0)
           (-30.0 30.0)
  end
  begin
     id 13 
     name thorax
     direction 0.00907706 0.997048 0.0762461   
     length 1.95722   
     axis 0 0 0   XYZ
    dof rx ry rz
    limits (-20.0 45.0)
           (-30.0 30.0)
           (-30.0 30.0)
  end
  begin
     id 14 
     name lowerneck
     direction -0.0481835 0.99872 -0.0153927   
     length 1.63078   
     axis 0 0 0   XYZ
    dof rx ry rz
    limits (-20.0 45.0)
           (-30.0 30.0)
           (-30.0 30.0)
  end
  begin
     id 15 
     name upperneck
     direction 0.0859716 0.979226 -0.183644   
     length 1.62591   
     axis 0 0 0   XYZ
    dof rx ry rz
    limits (-20.0 45.0)
           (-30.0 30.0)
           (-30.0 30.0)
  end
  begin
     id 16
     name head
     direction 0.0324821 0.997629 -0.0606773  
     length 1.64811  
     axis 0 0 0   XYZ
    dof rx ry rz
    limits (-20.0 45.0)
           (-30.0 30.0)
           (-30.0 30.0)
  end
  begin
     id 17 
     name lclavicle
     direction 0.939609 0.311019 0.142835  
     length 3.70647  
     axis 0 0 0   XYZ
    dof ry rz
    limits (-20.0 10.0)
           (0.0 20.0)
  end
  begin
     id 18 
     name lhumerus
     direction 1 -4.48963e-011 -1.59838e-027   
     length 4.59207   
     axis 180 -30 -90   XYZ
    dof rx ry rz
    limits (-60.0 90.0)
           (-90.0 90.0)
           (-90.0 90.0)
  end
  begin
     id 19
     name lradius
     direction 1 -4.48957e-011 -1.3483e-026   
     length 2.98109   
     axis 180 -30 -90   XYZ
    dof rx
    limits (-10.0 170.0)
  end
  begin
     id 20
     name lwrist
     direction 1 -4.48954e-011 -3.11579e-026   
     length 1.49055   
     axis 2.00652e-014 90 90   XYZ
    dof ry
    limits (-180.0 0.0)
 end
  begin
     id 21 
     name lhand
     direction 1 -4.4911e-011 -6.23158e-026   
     length 0.480203   
     axis 3.97628e-014 90 90   XYZ
    dof rx rz
    limits (-90.0 90.0)
           (-45.0 45.0)
  end
  begin
     id 22 
     name lfingers
     direction 1 -4.48893e-011 -1.24632e-025   
     length 0.387152   
     axis 7.95256e-014 90 90   XYZ
    dof rx
    limits (0.0 90.0)
  end
  begin
     id 23
     name lthumb
     direction 0.707107 -6.35013e-011 0.707107   
     length 0.555875   
     axis -90 45 2.85299e-015   XYZ
    dof rx rz
    limits (-45.0 45.0)
           (-45.0 45.0)
  end
  begin
     id 24 
     name rclavicle
     direction -0.950396 0.30392 0.0661859   
     length 3.70894  
     axis 0 0 0   XYZ 
    dof ry rz
    limits (-10.0 20.0)
           (-20.0 0.0)
  end
  begin
     id 25 
     name rhumerus
     direction -1 -4.48957e-011 -2.96677e-027  
     length 4.76508   
     axis 180 30 90   XYZ
    dof rx ry rz
    limits (-90.0 60.0)
           (-90.0 90.0)
           (-90.0 90.0)
  end
  begin
     id 26 
     name rradius
     direction -1 -4.48974e-011 -1.44501e-026   
     length 2.78902   
     axis 180 30 90   XYZ
    dof rx
    limits (-10.0 170.0)
  end
  begin
     id 27 
     name rwrist
     direction -1 -4.48978e-011 -3.11579e-026   
     length 1.39451   
     axis 2.00652e-014 -90 -90   XYZ
    dof ry
    limits (-180.0 0.0)
  end
  begin
     id 28
     name rhand
     direction -1 -4.48956e-011 -6.23158e-026   
     length 0.721303   
     axis 3.97628e-014 -90 -90   XYZ
    dof rx rz
    limits (-90.0 90.0)
           (-45.0 45.0)
  end
  begin
     id 29
     name rfingers
     direction -1 -4.4899e-011 -1.24632e-025   
     length 0.581533   
     axis 7.95256e-014 -90 -90   XYZ
    dof rx
    limits (0.0 90.0)
  end
  begin
     id 30
     name rthumb
     direction -0.707107 -6.34911e-011 0.707107   
     length 0.834968   
     axis -90 -45 -2.85299e-015   XYZ
    dof rx rz
    limits (-45.0 45.0)
           (-45.0 45.0)
  end
:hierarchy
  begin
    root lhipjoint rhipjoint lowerback
    lhipjoint lfemur
    lfemur ltibia
    ltibia lfoot
    lfoot ltoes
    rhipjoint rfemur
    rfemur rtibia
    rtibia rfoot
    rfoot rtoes
    lowerback upperback
    upperback thorax
    thorax lowerneck lclavicle rclavicle
    lowerneck upperneck
    upperneck head
    lclavicle lhumerus
    lhumerus lradius
    lradius lwrist
    lwrist lhand lthumb
    lhand lfingers
    rclavicle rhumerus
    rhumerus rradius
    rradius rwrist
    rwrist rhand rthumb
    rhand rfingers
  end

#!OML:ASF I:\salsa\salsa 7_09\Patient 1\Session 1\dancerfemale.ASF
:FULLY-SPECIFIED
:DEGREES
736
root 3.67553 15.8085 5.97335 -168.172 -3.82249 182.262
lowerback 1.2505 -3.58123 -1.28817
upperback -10.1637 -6.20531 -1.13338
thorax -11.5918 -3.41756 0.283907
lowerneck 6.71678 -7.98385 -8.47632
upperneck 5.24238 -10.6175 23.8385
head 2.14137 -4.67112 8.77025
rclavicle -4.47266e-014 -4.13472e-014
rhumerus -14.8886 -23.5715 3.52005
rradius 94.1829
rwrist -3.74142
rhand 0.860361 428.169
rfingers 7.12502
rthumb 26.4142 39.9892
lclavicle -4.47266e-014 -4.13472e-014
lhumerus -45.1454 -21.1667 97.4631
lradius 104.669
lwrist -10.6438
lhand -12.4499 14.8867
lfingers 7.12502
lthumb 13.6234 44.4209
rfemur -16.4633 17.392 27.4474
rtibia 27.1136
rfoot -18.7648 18.6069
rtoes -0.0649885
lfemur -40.3081 -17.3405 0.976995
ltibia 58.2525
lfoot -18.0999 -13.1788
ltoes 3.56482
737
root 3.36581 15.8629 5.86612 -168.182 2.78878 182.239
lowerback 1.78266 -4.66451 -1.06529
upperback -10.296 -5.56774 -1.09944
thorax -12.0604 -2.24252 -0.0122082
lowerneck 5.99209 -7.18423 -8.25038
upperneck 6.25393 -9.67087 24.2586
head 2.39673 -4.08101 8.88968
rclavicle 1.5704e-014 -1.03368e-014
rhumerus -11.1659 -22.5766 3.1299
rradius 94.4366
rwrist -3.64023
rhand 1.22161 429.917
rfingers 7.12502
rthumb 26.7599 41.7899
lclavicle 1.5704e-014 -1.03368e-014
lhumerus -46.0161 -22.0833 98.4782
lradius 105.185
lwrist -10.2586
lhand -11.6822 14.3553
lfingers 7.12502
lthumb 14.3633 43.8384
rfemur -16.2115 19.0426 25.4318
rtibia 27.1223
rfoot -17.673 21.7828
rtoes -0.0564043
lfemur -39.7804 -21.4842 3.30049
ltibia 54.9721
lfoot -18.2076 -18.4566
ltoes 0.299454
738
root 3.0525 15.9302 5.74335 -168.195 9.75214 182.149
lowerback 1.99842 -4.28206 -1.12749
upperback -10.1954 -5.15672 -1.21708
thorax -12.0814 -2.08353 -0.133869
lowerneck 4.96936 -6.53831 -7.85588
upperneck 7.33792 -8.96403 24.5024
head 2.75284 -3.58846 8.90527
rclavicle 1.13307e-014 -1.43125e-014
rhumerus -7.11435 -22.1137 2.88012
rradius 94.1921
rwrist -3.07365
rhand 0.896066 431.673
rfingers 7.12502
rthumb 26.4484 43.4988
lclavicle 1.13307e-014 -1.43125e-014
lhumerus -46.6571 -23.0031 99.5057
lradius 105.806
lwrist -9.93838
lhand -11.7191 14.7541
lfingers 7.12502
lthumb 14.3277 44.2397
rfemur -16.4468 20.1163 23.2416
rtibia 27.4848
rfoot -16.0084 25.3242
rtoes 1.83559
lfemur -38.7801 -25.6842 5.09895
ltibia 51.952
lfoot -16.8065 -21.4592
ltoes 1.64956
739
root 2.72854 15.9954 5.60558 -168.059 17.0228 181.955
lowerback 2.31028 -3.83111 -1.15676
upperback -10.3961 -4.617 -1.44646
thorax -12.5275 -1.84287 -0.405596
lowerneck 4.11413 -6.08052 -7.28815
upperneck 8.72982 -8.55556 24.5854
head 3.21125 -3.21615 8.84257
rclavicle 3.10104e-014 1.98785e-014
rhumerus -3.18139 -21.1612 2.60352
rradius 94.1962
rwrist -2.74033
rhand 0.207564 432.603
rfingers 7.12502
rthumb 25.7892 44.3306
lclavicle 3.10104e-014 1.98785e-014
lhumerus -47.8075 -23.8543 100.705
lradius 106.39
lwrist -9.9244
lhand -11.688 14.8143
lfingers 7.12502
lthumb 14.3577 44.2978
rfemur -17.3943 20.4471 20.7559
rtibia 28.1063
rfoot -13.9314 28.8929
rtoes 3.38148
lfemur -37.455 -28.663 5.85798
ltibia 49.3961
lfoot -15.8531 -22.5421
ltoes 1.03485
740
root 2.40129 16.0707 5.45567 -167.849 24.5054 181.586
lowerback 2.47733 -3.4679 -1.5448
upperback -10.6281 -4.20381 -1.49116
thorax -12.875 -1.61576 -0.27828
lowerneck 3.34832 -5.49389 -7.05651
upperneck 10.0102 -8.00475 24.7692
head 3.61988 -2.80522 8.89493
rclavicle 7.13637e-014 1.59028e-014
rhumerus 1.24267 -20.5746 2.14521
rradius 94.284
rwrist -2.65719
rhand 0.029025 433.037
rfingers 7.12502
rthumb 25.6182 44.7407
lclavicle 7.13637e-014 1.59028e-014
lhumerus -48.7851 -24.2136 102.089
lradius 106.839
lwrist -9.59511
lhand -11.9173 14.4314
lfingers 7.12502
lthumb 14.1367 43.9304
rfemur -18.9833 20.2167 17.9751
rtibia 28.9456
rfoot -12.027 32.2027
rtoes 1.78174
lfemur -35.6799 -30.3115 5.39233
ltibia 47.2739
lfoot -15.9045 -22.3336
ltoes -5.17328
